<?xml version="1.0" encoding="UTF-8"?>
<svg width="240px" height="234px" viewBox="0 0 240 234" version="1.1" xmlns="http://www.w3.org/2000/svg" xmlns:xlink="http://www.w3.org/1999/xlink">
    <!-- Generator: Sketch 50.2 (55047) - http://www.bohemiancoding.com/sketch -->
    <title>afterscript-logo</title>
    <desc>Created with Sketch.</desc>
    <defs></defs>
    <g id="Page-1" stroke="none" stroke-width="1" fill="none" fill-rule="evenodd">
        <g id="afterscript-logo">
            <polygon id="Shape" fill="#1F0040" fill-rule="nonzero" points="10 10 230 10 230 224 10 224"></polygon>
            <path d="M0,0 L0,234 L240,234 L240,0 L0,0 Z M10,10 L230,10 L230,224 L10,224 L10,10 Z M66.7520803,144.718476 C66.6350736,145.186503 66.4595634,145.362014 65.8745296,145.362014 L57.2745326,145.362014 C56.6894988,145.362014 56.572492,145.186503 56.6894988,144.484463 L73.304459,86.3906055 C73.5969759,85.3375447 73.7724861,84.5184973 73.8894928,81.5933283 C73.8894928,81.1838046 74.065003,81.0082945 74.3575199,81.0082945 L86.6432299,81.0082945 C87.0527536,81.0082945 87.2282637,81.1253012 87.3452705,81.5933283 L105.949346,144.60147 C106.066352,145.069497 105.949346,145.362014 105.481319,145.362014 L95.8282607,145.362014 C95.3602337,145.362014 95.0677168,145.186503 94.95071,144.77698 L90.0949294,127.225966 L71.3738474,127.225966 L66.7520803,144.718476 Z M87.8132975,117.748418 C86.1752028,111.254542 82.1969729,97.0967243 80.7343884,90.2518287 L80.6173816,90.2518287 C79.3888106,97.0967243 76.1711247,108.680394 73.7724861,117.748418 C73.8309894,117.748418 87.8132975,117.748418 87.8132975,117.748418 Z M131.924847,136.937527 C135.376546,136.937527 138.360219,136.4695 141.460898,135.123922 C141.870422,134.948412 142.162939,135.006915 142.162939,135.533446 L142.162939,142.846368 C142.162939,143.431402 141.987428,143.723919 141.577905,144.016436 C138.477226,145.537524 134.616002,146.239564 129.818725,146.239564 C114.373833,146.239564 108.581998,134.831405 108.581998,122.077668 C108.581998,108.27087 115.71941,96.9797175 128.297637,96.9797175 C141.051374,96.9797175 145.497631,107.685836 145.497631,116.40284 C145.497631,119.211002 145.322121,121.492634 145.029604,122.604198 C144.912597,123.072225 144.737087,123.247736 144.26906,123.364742 C143.098993,123.540253 139.647293,123.774266 134.498996,123.774266 L119.17111,123.715763 C119.288117,131.613719 123.032333,136.937527 131.924847,136.937527 Z M135.376546,115.525289 C135.376546,115.115766 135.493553,114.823249 135.493553,114.530732 C135.493553,111.371549 133.972465,105.521211 127.888114,105.521211 C122.271789,105.521211 119.87315,110.435495 119.288117,115.642296 L131.047296,115.642296 C134.030969,115.642296 135.084029,115.642296 135.376546,115.525289 Z" id="Shape" fill="#D291FF" fill-rule="nonzero"></path>
            <text id="&lt;-/&gt;" font-family="SFMono-Bold, SF Mono" font-size="69" font-weight="bold" fill="#D291FF">
                <tspan x="15" y="141">&lt;  /&gt;</tspan>
            </text>
        </g>
    </g>
</svg>